<svg xmlns="http://www.w3.org/2000/svg" width="1200" height="750" viewBox="0 0 1200 750" fill="none">
  <rect width="1200" height="750" fill="#0a1220"/>
  <rect x="40" y="40" width="1120" height="670" rx="20" fill="#0e1524"/>
  <text x="70" y="100" fill="#ff8f6b" font-family="sans-serif" font-size="24" font-weight="700">Mail &amp; n8n Bridge</text>
  <text x="70" y="140" fill="#6b7a99" font-family="monospace" font-size="14">Outlook intake � webhook � Fusion runner</text>
  <rect x="70" y="200" width="300" height="420" rx="16" fill="#121a2b"/>
  <text x="100" y="260" fill="#eef3ff" font-family="sans-serif" font-size="18" font-weight="700">Inbox</text>
  <rect x="100" y="290" width="240" height="50" rx="8" fill="#1a2438"/>
  <text x="120" y="322" fill="#9aa8c7" font-family="monospace" font-size="13">xlsx � Segment batch</text>
  <rect x="100" y="360" width="240" height="50" rx="8" fill="#1a2438"/>
  <text x="120" y="392" fill="#9aa8c7" font-family="monospace" font-size="13">xlsx � GL remap</text>
  <rect x="420" y="320" width="160" height="8" rx="4" fill="#5b8cff"/>
  <rect x="620" y="200" width="300" height="420" rx="16" fill="#121a2b"/>
  <text x="650" y="260" fill="#eef3ff" font-family="sans-serif" font-size="18" font-weight="700">n8n</text>
  <rect x="650" y="300" width="240" height="70" rx="12" fill="#1a2438"/>
  <text x="675" y="343" fill="#3ee0c2" font-family="monospace" font-size="14">Webhook fired</text>
  <rect x="650" y="400" width="240" height="70" rx="12" fill="#1a2438"/>
  <text x="675" y="443" fill="#5b8cff" font-family="monospace" font-size="14">Route � drop/</text>
  <rect x="960" y="320" width="160" height="8" rx="4" fill="#3ee0c2"/>
  <rect x="960" y="280" width="160" height="90" rx="12" fill="#12251f"/>
  <text x="985" y="335" fill="#3ee0c2" font-family="sans-serif" font-size="16" font-weight="700">Runner</text>
</svg>
