<svg xmlns="http://www.w3.org/2000/svg" width="1200" height="750" viewBox="0 0 1200 750" fill="none">
  <rect width="1200" height="750" fill="#0a1220"/>
  <rect x="40" y="40" width="1120" height="670" rx="20" fill="#0e1524"/>
  <text x="70" y="95" fill="#3ee0c2" font-family="sans-serif" font-size="22" font-weight="700">Segment 3 / 5 Insert</text>
  <text x="70" y="130" fill="#6b7a99" font-family="monospace" font-size="14">Excel + OCR � REFERENCE9 � SQL</text>
  <rect x="70" y="170" width="500" height="480" rx="14" fill="#121a2b"/>
  <rect x="100" y="210" width="440" height="40" rx="6" fill="#1a2438"/>
  <rect x="100" y="270" width="440" height="40" rx="6" fill="#1f2d48"/>
  <rect x="100" y="330" width="440" height="40" rx="6" fill="#1a2438"/>
  <rect x="100" y="390" width="440" height="40" rx="6" fill="#1f2d48"/>
  <rect x="100" y="450" width="440" height="40" rx="6" fill="#1a2438"/>
  <text x="120" y="236" fill="#9aa8c7" font-family="monospace" font-size="14">ENTITY | SEGMENT3 | SEGMENT5 | REF9</text>
  <text x="120" y="296" fill="#eef3ff" font-family="monospace" font-size="14">VEM01 � 2100 � 4500 � INV-88421</text>
  <text x="120" y="356" fill="#eef3ff" font-family="monospace" font-size="14">VEM01 � 2200 � 4600 � INV-88422</text>
  <text x="120" y="416" fill="#3ee0c2" font-family="monospace" font-size="14">OCR match � confidence 97%</text>
  <rect x="610" y="170" width="500" height="480" rx="14" fill="#0a101c"/>
  <text x="640" y="220" fill="#5b8cff" font-family="monospace" font-size="16">-- generated output</text>
  <text x="640" y="270" fill="#eef3ff" font-family="monospace" font-size="15">INSERT INTO fusion_seg...</text>
  <text x="640" y="310" fill="#9aa8c7" font-family="monospace" font-size="15">VALUES ('2100','4500'...</text>
  <text x="640" y="370" fill="#3ee0c2" font-family="monospace" font-size="15">[OK] 128 rows ready</text>
  <rect x="640" y="420" width="420" height="12" rx="6" fill="#1a2438"/>
  <rect x="640" y="420" width="360" height="12" rx="6" fill="#3ee0c2"/>
</svg>
